<svg width="54" height="50" viewBox="0 0 54 50" fill="none" xmlns="http://www.w3.org/2000/svg">
<path d="M48.1819 0H5.8185C2.60994 0 0 2.41661 0 5.3875V34.1217C0 37.0922 2.60994 39.5088 5.8185 39.5088H19.2443L23.6905 47.7428C24.465 49.1772 25.6713 50 27 50C28.3287 50 29.535 49.1772 30.3095 47.7428L34.7561 39.5088H48.1819C51.3901 39.5088 54 37.0922 54 34.1217V5.3875C54 2.41661 51.3901 0 48.1819 0V0ZM50.8359 34.1217C50.8359 35.4767 49.6453 36.5791 48.1819 36.5791H33.7784C33.179 36.5791 32.6315 36.8927 32.3633 37.389L27.4796 46.4325C27.2826 46.7972 27.0976 46.9765 27 47.0451C26.9024 46.9765 26.7174 46.7972 26.5204 46.4325L21.6367 37.389C21.369 36.8927 20.821 36.5791 20.222 36.5791H5.8185C4.35471 36.5791 3.16406 35.4767 3.16406 34.1217V5.3875C3.16406 4.03214 4.35471 2.92969 5.8185 2.92969H48.1819C49.6453 2.92969 50.8359 4.03214 50.8359 5.3875V34.1217Z" fill="#0A588B"/>
</svg>
