<svg width="60" height="60" viewBox="0 0 60 60" fill="none" xmlns="http://www.w3.org/2000/svg">
<circle cx="30" cy="25" r="19.5" fill="#0A588B" stroke="#0A588B"/>
<path d="M25.0648 24.1739L25.647 23.8997L25.2373 23.4033C24.765 22.831 24.5 22.1577 24.5 21.4445V20.0833C24.5 18.1974 26.4192 16.5 29 16.5C31.5808 16.5 33.5001 18.1974 33.5001 20.0833V21.4445C33.5001 23.3304 31.5808 25.0278 29 25.0278C27.9846 25.0278 27.0545 24.7538 26.304 24.3035L26.0901 24.1752L25.8589 24.2688C23.5247 25.2148 21.8334 27.2197 21.8334 29.6112V30.2917C21.8334 31.0324 22.5296 31.4722 23.1667 31.4722H30.6667C30.789 31.4722 30.8837 31.513 30.9398 31.5588C30.9948 31.6038 31.0001 31.6397 31.0001 31.6528C31.0001 31.6659 30.9948 31.7018 30.9398 31.7468C30.8837 31.7926 30.789 31.8333 30.6667 31.8333H23.1667C21.9651 31.8333 21.1667 31.0512 21.1667 30.2917V29.6111C21.1667 27.3339 22.6961 25.2896 25.0648 24.1739ZM36.0001 27.5695V28.0695H36.5001H39.8334C39.9557 28.0695 40.0504 28.1102 40.1065 28.156C40.1615 28.201 40.1667 28.2368 40.1667 28.25C40.1667 28.2631 40.1615 28.299 40.1064 28.344C40.0504 28.3898 39.9556 28.4305 39.8334 28.4305H36.5H36V28.9305V31.6528C36 31.6659 35.9948 31.7018 35.9398 31.7467C35.8837 31.7926 35.7889 31.8333 35.6667 31.8333C35.5445 31.8333 35.4497 31.7926 35.3936 31.7467C35.3386 31.7018 35.3334 31.6659 35.3334 31.6528V28.9305V28.4305H34.8334H31.5001C31.3778 28.4305 31.283 28.3898 31.227 28.344C31.1719 28.299 31.1667 28.2631 31.1667 28.25C31.1667 28.2369 31.1719 28.201 31.227 28.156C31.283 28.1102 31.3778 28.0695 31.5001 28.0695H34.8335H35.3335V27.5695V24.8472C35.3335 24.8341 35.3387 24.7982 35.3937 24.7533C35.4498 24.7074 35.5446 24.6667 35.6668 24.6667C35.789 24.6667 35.8838 24.7074 35.9399 24.7533C35.9949 24.7982 36.0001 24.8341 36.0001 24.8472V27.5695ZM29.0001 24.6667C31.0151 24.6667 32.8334 23.3118 32.8334 21.4445L32.8334 20.0833C32.8334 18.216 31.0151 16.8611 29 16.8611C26.985 16.8611 25.1667 18.216 25.1667 20.0833V21.4445C25.1667 23.3118 26.985 24.6667 29.0001 24.6667Z" fill="white" stroke="#0A588B"/>
<g filter="url(#filter0_d_1_238)">
<circle cx="30" cy="25" r="20" fill="#0A588B"/>
<circle cx="30" cy="25" r="19.5" stroke="#0A588B"/>
</g>
<path d="M25.3981 24.1739L25.9803 23.8997L25.5706 23.4033C25.0983 22.831 24.8333 22.1577 24.8333 21.4445V20.0833C24.8333 18.1974 26.7526 16.5 29.3334 16.5C31.9142 16.5 33.8334 18.1974 33.8334 20.0833V21.4445C33.8334 23.3304 31.9142 25.0278 29.3334 25.0278C28.3179 25.0278 27.3878 24.7538 26.6373 24.3035L26.4234 24.1752L26.1922 24.2688C23.858 25.2148 22.1667 27.2197 22.1667 29.6112V30.2917C22.1667 31.0324 22.8629 31.4722 23.5 31.4722H31C31.1223 31.4722 31.2171 31.513 31.2731 31.5588C31.3282 31.6038 31.3334 31.6397 31.3334 31.6528C31.3334 31.6659 31.3282 31.7018 31.2731 31.7468C31.2171 31.7926 31.1223 31.8333 31 31.8333H23.5C22.2984 31.8333 21.5 31.0512 21.5 30.2917V29.6111C21.5 27.3339 23.0294 25.2896 25.3981 24.1739ZM36.3334 27.5695V28.0695H36.8334H40.1668C40.289 28.0695 40.3837 28.1102 40.4398 28.156C40.4948 28.201 40.5 28.2368 40.5 28.25C40.5 28.2631 40.4948 28.299 40.4398 28.344C40.3837 28.3898 40.2889 28.4305 40.1667 28.4305H36.8333H36.3333V28.9305V31.6528C36.3333 31.6659 36.3281 31.7018 36.2731 31.7467C36.217 31.7926 36.1222 31.8333 36 31.8333C35.8778 31.8333 35.783 31.7926 35.7269 31.7467C35.6719 31.7018 35.6667 31.6659 35.6667 31.6528V28.9305V28.4305H35.1667H31.8334C31.7111 28.4305 31.6163 28.3898 31.5603 28.344C31.5052 28.299 31.5 28.2631 31.5 28.25C31.5 28.2369 31.5052 28.201 31.5603 28.156C31.6163 28.1102 31.7112 28.0695 31.8334 28.0695H35.1668H35.6668V27.5695V24.8472C35.6668 24.8341 35.672 24.7982 35.727 24.7533C35.7831 24.7074 35.8779 24.6667 36.0001 24.6667C36.1223 24.6667 36.2171 24.7074 36.2732 24.7533C36.3282 24.7982 36.3334 24.8341 36.3334 24.8472V27.5695ZM29.3334 24.6667C31.3484 24.6667 33.1667 23.3118 33.1667 21.4445L33.1667 20.0833C33.1667 18.216 31.3484 16.8611 29.3334 16.8611C27.3183 16.8611 25.5 18.216 25.5 20.0833V21.4445C25.5 23.3118 27.3184 24.6667 29.3334 24.6667Z" fill="white" stroke="white"/>
<defs>
<filter id="filter0_d_1_238" x="0" y="0" width="60" height="60" filterUnits="userSpaceOnUse" color-interpolation-filters="sRGB">
<feFlood flood-opacity="0" result="BackgroundImageFix"/>
<feColorMatrix in="SourceAlpha" type="matrix" values="0 0 0 0 0 0 0 0 0 0 0 0 0 0 0 0 0 0 127 0" result="hardAlpha"/>
<feOffset dy="5"/>
<feGaussianBlur stdDeviation="5"/>
<feColorMatrix type="matrix" values="0 0 0 0 0.564706 0 0 0 0 0.564706 0 0 0 0 0.564706 0 0 0 0.35 0"/>
<feBlend mode="normal" in2="BackgroundImageFix" result="effect1_dropShadow_1_238"/>
<feBlend mode="normal" in="SourceGraphic" in2="effect1_dropShadow_1_238" result="shape"/>
</filter>
</defs>
</svg>
